<svg width="294" height="45" viewBox="0 0 294 45" fill="none" xmlns="http://www.w3.org/2000/svg">
<path d="M45.0742 22.1443L56.3424 33.2167L45.0742 44.2891L33.806 33.2167L45.0742 22.1443Z" fill="#3998FF"/>
<path d="M22.5264 22.1345L33.7895 33.202L22.5264 44.2694L11.2632 33.202L22.5264 22.1345Z" fill="#D763FF"/>
<rect width="15.8119" height="15.8119" transform="matrix(0.713277 0.700883 -0.713277 0.700883 33.8145 11.0828)" fill="#8A88FF"/>
<rect width="15.8119" height="15.8119" transform="matrix(0.713277 0.700883 -0.713277 0.700883 11.2783 11.0828)" fill="#FFB800"/>
<path d="M45.082 0L56.3603 11.0823L45.082 22.1646L33.8038 11.0823L45.082 0Z" fill="#8A88FF"/>
<path d="M22.5469 0L33.8251 11.0823L22.5469 22.1646L11.2686 11.0823L22.5469 0Z" fill="#FF7979"/>
<rect width="15.8119" height="15.8119" transform="matrix(0.713277 0.700883 -0.713277 0.700883 56.3506 11.0728)" fill="#19E6F3"/>
<path d="M33.8145 11.0728L45.0927 22.155L33.8145 33.2373L22.5362 22.155L33.8145 11.0728Z" fill="#3A36FF"/>
<path d="M81.1625 29.1638C82.4345 29.1638 83.4305 28.8788 84.1505 28.3088C84.8705 27.7388 85.2305 26.9558 85.2305 25.9598C85.2305 25.2038 84.9965 24.6068 84.5285 24.1688C84.0665 23.7308 83.2805 23.3678 82.1705 23.0798C81.4145 22.8878 80.8505 22.7318 80.4785 22.6118C80.1125 22.4918 79.8695 22.3748 79.7495 22.2608C79.6355 22.1468 79.5785 22.0058 79.5785 21.8378C79.5785 21.5558 79.7135 21.3398 79.9835 21.1898C80.2595 21.0398 80.6225 20.9798 81.0725 21.0098C82.0265 21.0818 82.5485 21.4898 82.6385 22.2338L85.1405 21.7838C85.0145 20.9018 84.5825 20.2028 83.8445 19.6868C83.1065 19.1648 82.1645 18.9038 81.0185 18.9038C79.8425 18.9038 78.9035 19.1798 78.2015 19.7318C77.4995 20.2838 77.1485 21.0278 77.1485 21.9638C77.1485 22.7078 77.3915 23.2958 77.8775 23.7278C78.3635 24.1538 79.2005 24.5198 80.3885 24.8258C81.0905 25.0118 81.6065 25.1618 81.9365 25.2758C82.2725 25.3898 82.4885 25.5068 82.5845 25.6268C82.6805 25.7408 82.7285 25.8938 82.7285 26.0858C82.7285 26.3918 82.6085 26.6318 82.3685 26.8058C82.1285 26.9738 81.7865 27.0578 81.3425 27.0578C80.8025 27.0578 80.3555 26.9288 80.0015 26.6708C79.6535 26.4128 79.4285 26.0558 79.3265 25.5998L76.8245 25.9778C76.9865 26.9918 77.4425 27.7778 78.1925 28.3358C78.9485 28.8878 79.9385 29.1638 81.1625 29.1638ZM87.1902 28.8938H89.6562V23.0078C89.6562 22.4498 89.8092 21.9968 90.1152 21.6488C90.4272 21.2948 90.8382 21.1178 91.3482 21.1178C91.8822 21.1178 92.2992 21.2978 92.5992 21.6578C92.9052 22.0118 93.0582 22.5098 93.0582 23.1518V28.8938H95.5062V23.0078C95.5062 22.4498 95.6592 21.9968 95.9652 21.6488C96.2772 21.2948 96.6882 21.1178 97.1982 21.1178C97.7322 21.1178 98.1492 21.2978 98.4492 21.6578C98.7552 22.0118 98.9082 22.5098 98.9082 23.1518V28.8938H101.356V22.5038C101.356 21.4418 101.071 20.5838 100.501 19.9298C99.9372 19.2698 99.1002 18.9398 97.9902 18.9398C97.3662 18.9398 96.7932 19.0748 96.2712 19.3448C95.7492 19.6148 95.3322 19.9838 95.0202 20.4518C94.7682 19.9958 94.4082 19.6298 93.9402 19.3538C93.4722 19.0778 92.8902 18.9398 92.1942 18.9398C91.6062 18.9398 91.0662 19.0568 90.5742 19.2908C90.0822 19.5188 89.6742 19.8338 89.3502 20.2358V19.1738H87.1902V28.8938ZM106.397 29.1638C107.147 29.1638 107.777 29.0498 108.287 28.8218C108.803 28.5878 109.277 28.2158 109.709 27.7058V28.8938H111.851V22.9538C111.851 22.5098 111.833 22.1078 111.797 21.7478C111.761 21.3878 111.647 21.0278 111.455 20.6678C111.113 20.0198 110.609 19.5638 109.943 19.2998C109.277 19.0358 108.515 18.9038 107.657 18.9038C106.487 18.9038 105.563 19.1558 104.885 19.6598C104.207 20.1638 103.745 20.8178 103.499 21.6218L105.713 22.3238C105.869 21.8798 106.142 21.5708 106.532 21.3968C106.922 21.2228 107.297 21.1358 107.657 21.1358C108.233 21.1358 108.662 21.2438 108.944 21.4598C109.226 21.6698 109.391 22.0028 109.439 22.4588C108.527 22.5908 107.723 22.7198 107.027 22.8458C106.331 22.9658 105.749 23.1098 105.281 23.2778C104.501 23.5658 103.952 23.9588 103.634 24.4568C103.316 24.9488 103.157 25.5338 103.157 26.2118C103.157 26.7518 103.28 27.2468 103.526 27.6968C103.778 28.1408 104.144 28.4978 104.624 28.7678C105.11 29.0318 105.701 29.1638 106.397 29.1638ZM106.919 27.2378C106.499 27.2378 106.166 27.1448 105.92 26.9588C105.674 26.7668 105.551 26.5058 105.551 26.1758C105.551 25.9298 105.629 25.7198 105.785 25.5458C105.941 25.3658 106.199 25.2038 106.559 25.0598C106.835 24.9578 107.174 24.8648 107.576 24.7808C107.984 24.6908 108.599 24.5768 109.421 24.4388C109.415 24.6728 109.397 24.9308 109.367 25.2128C109.337 25.4888 109.271 25.7318 109.169 25.9418C109.103 26.0798 108.977 26.2508 108.791 26.4548C108.611 26.6588 108.365 26.8418 108.053 27.0038C107.747 27.1598 107.369 27.2378 106.919 27.2378ZM114.191 28.8938H116.657V23.9258C116.657 22.7978 117.101 22.0298 117.989 21.6218C118.277 21.4838 118.598 21.4028 118.952 21.3788C119.312 21.3488 119.627 21.3758 119.897 21.4598V19.1738C119.459 19.1198 119.021 19.1318 118.583 19.2098C118.145 19.2818 117.749 19.4258 117.395 19.6418C117.167 19.7738 116.966 19.9328 116.792 20.1188C116.624 20.3048 116.477 20.5118 116.351 20.7398V19.1738H114.191V28.8938ZM127.441 28.8938V26.8598C126.865 26.9378 126.34 26.9618 125.866 26.9318C125.392 26.9018 125.047 26.7158 124.831 26.3738C124.717 26.1938 124.654 25.9538 124.642 25.6538C124.636 25.3478 124.633 25.0058 124.633 24.6278V21.0638H127.441V19.1738H124.633V16.4738H122.185V19.1738H120.529V21.0638H122.185V24.7718C122.185 25.3538 122.191 25.8758 122.203 26.3378C122.215 26.7938 122.341 27.2438 122.581 27.6878C122.845 28.1618 123.229 28.5068 123.733 28.7228C124.243 28.9328 124.819 29.0438 125.461 29.0558C126.109 29.0738 126.769 29.0198 127.441 28.8938ZM134.503 29.1638C135.163 29.1638 135.802 29.0798 136.42 28.9118C137.044 28.7438 137.602 28.4918 138.094 28.1558C138.586 27.8138 138.976 27.3848 139.264 26.8688C139.558 26.3468 139.705 25.7378 139.705 25.0418C139.705 24.3878 139.582 23.8478 139.336 23.4218C139.096 22.9958 138.787 22.6538 138.409 22.3958C138.037 22.1318 137.647 21.9278 137.239 21.7838C136.831 21.6338 136.459 21.5138 136.123 21.4238L133.873 20.8118C133.597 20.7398 133.327 20.6498 133.063 20.5418C132.799 20.4338 132.58 20.2928 132.406 20.1188C132.232 19.9388 132.145 19.7078 132.145 19.4258C132.145 19.1198 132.25 18.8558 132.46 18.6338C132.676 18.4118 132.952 18.2438 133.288 18.1298C133.63 18.0098 133.993 17.9558 134.377 17.9678C134.965 17.9858 135.505 18.1598 135.997 18.4898C136.489 18.8198 136.807 19.2998 136.951 19.9298L139.597 19.4798C139.285 18.2618 138.679 17.3288 137.779 16.6808C136.879 16.0328 135.757 15.6998 134.413 15.6818C133.525 15.6758 132.715 15.8138 131.983 16.0958C131.251 16.3778 130.666 16.8068 130.228 17.3828C129.79 17.9588 129.571 18.6818 129.571 19.5518C129.571 20.1698 129.673 20.6828 129.877 21.0908C130.087 21.4928 130.348 21.8168 130.66 22.0628C130.972 22.3088 131.293 22.4978 131.623 22.6298C131.959 22.7618 132.253 22.8638 132.505 22.9358L135.871 23.9258C136.375 24.0758 136.711 24.2648 136.879 24.4928C137.047 24.7148 137.131 24.9578 137.131 25.2218C137.131 25.5818 137.008 25.8848 136.762 26.1308C136.522 26.3768 136.213 26.5628 135.835 26.6888C135.457 26.8148 135.067 26.8778 134.665 26.8778C133.945 26.8778 133.303 26.6768 132.739 26.2748C132.175 25.8728 131.803 25.2998 131.623 24.5558L129.067 24.9338C129.199 25.8098 129.511 26.5658 130.003 27.2018C130.501 27.8318 131.134 28.3178 131.902 28.6598C132.676 28.9958 133.543 29.1638 134.503 29.1638ZM141.665 28.8938H144.149V23.9618C144.149 23.3558 144.215 22.8698 144.347 22.5038C144.485 22.1378 144.659 21.8618 144.869 21.6758C145.079 21.4838 145.304 21.3548 145.544 21.2888C145.784 21.2228 146.009 21.1898 146.219 21.1898C146.741 21.1898 147.143 21.3068 147.425 21.5408C147.713 21.7748 147.92 22.0658 148.046 22.4138C148.172 22.7618 148.247 23.1098 148.271 23.4578C148.295 23.7998 148.307 24.0818 148.307 24.3038V28.8938H150.791V23.4398C150.791 23.2778 150.779 23.0198 150.755 22.6658C150.731 22.3118 150.662 21.9218 150.548 21.4958C150.434 21.0638 150.242 20.6498 149.972 20.2538C149.708 19.8578 149.336 19.5308 148.856 19.2728C148.376 19.0148 147.755 18.8858 146.993 18.8858C146.291 18.8858 145.679 19.0028 145.157 19.2368C144.635 19.4708 144.197 19.7828 143.843 20.1728V15.9338H141.665V28.8938ZM157.5 29.1638C158.472 29.1638 159.327 28.9478 160.065 28.5158C160.809 28.0778 161.388 27.4748 161.802 26.7068C162.222 25.9328 162.432 25.0418 162.432 24.0338C162.432 23.0318 162.225 22.1468 161.811 21.3788C161.397 20.6048 160.818 19.9988 160.074 19.5608C159.336 19.1228 158.478 18.9038 157.5 18.9038C156.54 18.9038 155.691 19.1198 154.953 19.5518C154.215 19.9838 153.636 20.5868 153.216 21.3608C152.796 22.1288 152.586 23.0198 152.586 24.0338C152.586 25.0358 152.79 25.9238 153.198 26.6978C153.612 27.4658 154.188 28.0688 154.926 28.5068C155.664 28.9448 156.522 29.1638 157.5 29.1638ZM157.5 26.8778C156.738 26.8778 156.159 26.6228 155.763 26.1128C155.373 25.5968 155.178 24.9038 155.178 24.0338C155.178 23.1878 155.364 22.5038 155.736 21.9818C156.114 21.4538 156.702 21.1898 157.5 21.1898C158.274 21.1898 158.856 21.4478 159.246 21.9638C159.642 22.4798 159.84 23.1698 159.84 24.0338C159.84 24.8678 159.645 25.5518 159.255 26.0858C158.871 26.6138 158.286 26.8778 157.5 26.8778ZM164.393 33.2138H166.859V28.5428C167.177 28.7408 167.528 28.8938 167.912 29.0018C168.302 29.1098 168.725 29.1638 169.181 29.1638C170.075 29.1638 170.858 28.9388 171.53 28.4888C172.202 28.0388 172.724 27.4268 173.096 26.6528C173.474 25.8788 173.663 25.0058 173.663 24.0338C173.663 23.0438 173.471 22.1648 173.087 21.3968C172.709 20.6228 172.175 20.0138 171.485 19.5698C170.795 19.1258 169.985 18.9038 169.055 18.9038C168.551 18.9038 168.089 18.9758 167.669 19.1198C167.255 19.2578 166.883 19.4558 166.553 19.7138V19.1738H164.393V33.2138ZM168.785 26.9858C167.969 26.9858 167.393 26.7158 167.057 26.1758C166.721 25.6298 166.553 24.9158 166.553 24.0338C166.553 23.1518 166.718 22.4408 167.048 21.9008C167.384 21.3548 167.933 21.0818 168.695 21.0818C169.241 21.0818 169.688 21.2168 170.036 21.4868C170.39 21.7508 170.651 22.1078 170.819 22.5578C170.987 23.0018 171.071 23.4938 171.071 24.0338C171.071 24.5798 170.99 25.0778 170.828 25.5278C170.666 25.9718 170.417 26.3258 170.081 26.5898C169.745 26.8538 169.313 26.9858 168.785 26.9858ZM175.626 33.2138H178.092V28.5428C178.41 28.7408 178.761 28.8938 179.145 29.0018C179.535 29.1098 179.958 29.1638 180.414 29.1638C181.308 29.1638 182.091 28.9388 182.763 28.4888C183.435 28.0388 183.957 27.4268 184.329 26.6528C184.707 25.8788 184.896 25.0058 184.896 24.0338C184.896 23.0438 184.704 22.1648 184.32 21.3968C183.942 20.6228 183.408 20.0138 182.718 19.5698C182.028 19.1258 181.218 18.9038 180.288 18.9038C179.784 18.9038 179.322 18.9758 178.902 19.1198C178.488 19.2578 178.116 19.4558 177.786 19.7138V19.1738H175.626V33.2138ZM180.018 26.9858C179.202 26.9858 178.626 26.7158 178.29 26.1758C177.954 25.6298 177.786 24.9158 177.786 24.0338C177.786 23.1518 177.951 22.4408 178.281 21.9008C178.617 21.3548 179.166 21.0818 179.928 21.0818C180.474 21.0818 180.921 21.2168 181.269 21.4868C181.623 21.7508 181.884 22.1078 182.052 22.5578C182.22 23.0018 182.304 23.4938 182.304 24.0338C182.304 24.5798 182.223 25.0778 182.061 25.5278C181.899 25.9718 181.65 26.3258 181.314 26.5898C180.978 26.8538 180.546 26.9858 180.018 26.9858ZM191.394 29.1638C192.33 29.1638 193.191 28.9178 193.977 28.4258C194.769 27.9338 195.348 27.2438 195.714 26.3558L193.266 25.6538C192.894 26.4698 192.222 26.8778 191.25 26.8778C190.584 26.8778 190.059 26.6918 189.675 26.3198C189.297 25.9478 189.063 25.4138 188.973 24.7178H195.795C195.897 23.5418 195.777 22.5188 195.435 21.6488C195.093 20.7788 194.565 20.1038 193.851 19.6238C193.137 19.1438 192.27 18.9038 191.25 18.9038C190.29 18.9038 189.441 19.1228 188.703 19.5608C187.965 19.9928 187.386 20.6018 186.966 21.3878C186.546 22.1738 186.336 23.0978 186.336 24.1598C186.336 25.1318 186.549 25.9958 186.975 26.7518C187.407 27.5018 188.001 28.0928 188.757 28.5248C189.519 28.9508 190.398 29.1638 191.394 29.1638ZM191.358 21.0278C191.946 21.0278 192.396 21.1748 192.708 21.4688C193.026 21.7628 193.23 22.2398 193.32 22.8998H189.036C189.294 21.6518 190.068 21.0278 191.358 21.0278ZM197.827 28.8938H200.293V23.9258C200.293 22.7978 200.737 22.0298 201.625 21.6218C201.913 21.4838 202.234 21.4028 202.588 21.3788C202.948 21.3488 203.263 21.3758 203.533 21.4598V19.1738C203.095 19.1198 202.657 19.1318 202.219 19.2098C201.781 19.2818 201.385 19.4258 201.031 19.6418C200.803 19.7738 200.602 19.9328 200.428 20.1188C200.26 20.3048 200.113 20.5118 199.987 20.7398V19.1738H197.827V28.8938Z" fill="black"/>
</svg>
