<svg width="224" height="34" viewBox="0 0 224 34" fill="none" xmlns="http://www.w3.org/2000/svg">
<path d="M34.3057 16.854L42.8818 25.2812L34.3057 33.7083L25.7295 25.2812L34.3057 16.854Z" fill="#3998FF"/>
<path d="M17.1445 16.8467L25.7169 25.2701L17.1445 33.6935L8.57218 25.2701L17.1445 16.8467Z" fill="#D763FF"/>
<rect width="12.0344" height="12.0344" transform="matrix(0.713277 0.700883 -0.713277 0.700883 25.7363 8.43506)" fill="#8A88FF"/>
<rect width="12.0344" height="12.0344" transform="matrix(0.713277 0.700883 -0.713277 0.700883 8.58398 8.43506)" fill="#FFB800"/>
<path d="M34.3115 0L42.8954 8.43468L34.3115 16.8694L25.7277 8.43468L34.3115 0Z" fill="#8A88FF"/>
<path d="M17.1602 0L25.744 8.43468L17.1602 16.8694L8.57633 8.43468L17.1602 0Z" fill="#FF7979"/>
<rect width="12.0344" height="12.0344" transform="matrix(0.713277 0.700883 -0.713277 0.700883 42.8877 8.42725)" fill="#19E6F3"/>
<path d="M25.7363 8.42725L34.3202 16.8619L25.7363 25.2966L17.1525 16.8619L25.7363 8.42725Z" fill="#3A36FF"/>
<path d="M61.8569 22.2178C62.8462 22.2178 63.6209 21.9961 64.1809 21.5528C64.7409 21.1095 65.0209 20.5005 65.0209 19.7258C65.0209 19.1378 64.8389 18.6735 64.4749 18.3328C64.1155 17.9921 63.5042 17.7098 62.6409 17.4858C62.0529 17.3365 61.6142 17.2151 61.3249 17.1218C61.0402 17.0285 60.8512 16.9375 60.7579 16.8488C60.6692 16.7601 60.6249 16.6505 60.6249 16.5198C60.6249 16.3005 60.7299 16.1325 60.9399 16.0158C61.1545 15.8991 61.4369 15.8525 61.7869 15.8758C62.5289 15.9318 62.9349 16.2491 63.0049 16.8278L64.9509 16.4778C64.8529 15.7918 64.5169 15.2481 63.9429 14.8468C63.3689 14.4408 62.6362 14.2378 61.7449 14.2378C60.8302 14.2378 60.0999 14.4525 59.5539 14.8818C59.0079 15.3111 58.7349 15.8898 58.7349 16.6178C58.7349 17.1965 58.9239 17.6538 59.3019 17.9898C59.6799 18.3211 60.3309 18.6058 61.2549 18.8438C61.8009 18.9885 62.2022 19.1051 62.4589 19.1938C62.7202 19.2825 62.8882 19.3735 62.9629 19.4668C63.0375 19.5555 63.0749 19.6745 63.0749 19.8238C63.0749 20.0618 62.9815 20.2485 62.7949 20.3838C62.6082 20.5145 62.3422 20.5798 61.9969 20.5798C61.5769 20.5798 61.2292 20.4795 60.9539 20.2788C60.6832 20.0781 60.5082 19.8005 60.4289 19.4458L58.4829 19.7398C58.6089 20.5285 58.9635 21.1398 59.5469 21.5738C60.1349 22.0031 60.9049 22.2178 61.8569 22.2178ZM66.5451 22.0078H68.4631V17.4298C68.4631 16.9958 68.5821 16.6435 68.8201 16.3728C69.0628 16.0975 69.3824 15.9598 69.7791 15.9598C70.1944 15.9598 70.5188 16.0998 70.7521 16.3798C70.9901 16.6551 71.1091 17.0425 71.1091 17.5418V22.0078H73.0131V17.4298C73.0131 16.9958 73.1321 16.6435 73.3701 16.3728C73.6128 16.0975 73.9324 15.9598 74.3291 15.9598C74.7444 15.9598 75.0688 16.0998 75.3021 16.3798C75.5401 16.6551 75.6591 17.0425 75.6591 17.5418V22.0078H77.5631V17.0378C77.5631 16.2118 77.3414 15.5445 76.8981 15.0358C76.4594 14.5225 75.8084 14.2658 74.9451 14.2658C74.4598 14.2658 74.0141 14.3708 73.6081 14.5808C73.2021 14.7908 72.8778 15.0778 72.6351 15.4418C72.4391 15.0871 72.1591 14.8025 71.7951 14.5878C71.4311 14.3731 70.9784 14.2658 70.4371 14.2658C69.9798 14.2658 69.5598 14.3568 69.1771 14.5388C68.7944 14.7161 68.4771 14.9611 68.2251 15.2738V14.4478H66.5451V22.0078ZM81.4833 22.2178C82.0667 22.2178 82.5567 22.1291 82.9533 21.9518C83.3547 21.7698 83.7233 21.4805 84.0593 21.0838V22.0078H85.7253V17.3878C85.7253 17.0425 85.7113 16.7298 85.6833 16.4498C85.6553 16.1698 85.5667 15.8898 85.4173 15.6098C85.1513 15.1058 84.7593 14.7511 84.2413 14.5458C83.7233 14.3405 83.1307 14.2378 82.4633 14.2378C81.5533 14.2378 80.8347 14.4338 80.3073 14.8258C79.78 15.2178 79.4207 15.7265 79.2293 16.3518L80.9513 16.8978C81.0727 16.5525 81.285 16.3121 81.5883 16.1768C81.8917 16.0415 82.1833 15.9738 82.4633 15.9738C82.9113 15.9738 83.245 16.0578 83.4643 16.2258C83.6837 16.3891 83.812 16.6481 83.8493 17.0028C83.14 17.1055 82.5147 17.2058 81.9733 17.3038C81.432 17.3971 80.9793 17.5091 80.6153 17.6398C80.0087 17.8638 79.5817 18.1695 79.3343 18.5568C79.087 18.9395 78.9633 19.3945 78.9633 19.9218C78.9633 20.3418 79.059 20.7268 79.2503 21.0768C79.4463 21.4221 79.731 21.6998 80.1043 21.9098C80.4823 22.1151 80.942 22.2178 81.4833 22.2178ZM81.8893 20.7198C81.5627 20.7198 81.3037 20.6475 81.1123 20.5028C80.921 20.3535 80.8253 20.1505 80.8253 19.8938C80.8253 19.7025 80.886 19.5391 81.0073 19.4038C81.1287 19.2638 81.3293 19.1378 81.6093 19.0258C81.824 18.9465 82.0877 18.8741 82.4003 18.8088C82.7177 18.7388 83.196 18.6501 83.8353 18.5428C83.8307 18.7248 83.8167 18.9255 83.7933 19.1448C83.77 19.3595 83.7187 19.5485 83.6393 19.7118C83.588 19.8191 83.49 19.9521 83.3453 20.1108C83.2053 20.2695 83.014 20.4118 82.7713 20.5378C82.5333 20.6591 82.2393 20.7198 81.8893 20.7198ZM87.5454 22.0078H89.4634V18.1438C89.4634 17.2665 89.8088 16.6691 90.4994 16.3518C90.7234 16.2445 90.9731 16.1815 91.2484 16.1628C91.5284 16.1395 91.7734 16.1605 91.9834 16.2258V14.4478C91.6428 14.4058 91.3021 14.4151 90.9614 14.4758C90.6208 14.5318 90.3128 14.6438 90.0374 14.8118C89.8601 14.9145 89.7038 15.0381 89.5684 15.1828C89.4378 15.3275 89.3234 15.4885 89.2254 15.6658V14.4478H87.5454V22.0078ZM97.851 22.0078V20.4258C97.403 20.4865 96.9946 20.5051 96.626 20.4818C96.2573 20.4585 95.989 20.3138 95.821 20.0478C95.7323 19.9078 95.6833 19.7211 95.674 19.4878C95.6693 19.2498 95.667 18.9838 95.667 18.6898V15.9178H97.851V14.4478H95.667V12.3478H93.763V14.4478H92.475V15.9178H93.763V18.8018C93.763 19.2545 93.7676 19.6605 93.777 20.0198C93.7863 20.3745 93.8843 20.7245 94.071 21.0698C94.2763 21.4385 94.575 21.7068 94.967 21.8748C95.3636 22.0381 95.8116 22.1245 96.311 22.1338C96.815 22.1478 97.3283 22.1058 97.851 22.0078ZM103.344 22.2178C103.857 22.2178 104.354 22.1525 104.835 22.0218C105.32 21.8911 105.754 21.6951 106.137 21.4338C106.519 21.1678 106.823 20.8341 107.047 20.4328C107.275 20.0268 107.39 19.5531 107.39 19.0118C107.39 18.5031 107.294 18.0831 107.103 17.7518C106.916 17.4205 106.676 17.1545 106.382 16.9538C106.092 16.7485 105.789 16.5898 105.472 16.4778C105.154 16.3611 104.865 16.2678 104.604 16.1978L102.854 15.7218C102.639 15.6658 102.429 15.5958 102.224 15.5118C102.018 15.4278 101.848 15.3181 101.713 15.1828C101.577 15.0428 101.51 14.8631 101.51 14.6438C101.51 14.4058 101.591 14.2005 101.755 14.0278C101.923 13.8551 102.137 13.7245 102.399 13.6358C102.665 13.5425 102.947 13.5005 103.246 13.5098C103.703 13.5238 104.123 13.6591 104.506 13.9158C104.888 14.1725 105.136 14.5458 105.248 15.0358L107.306 14.6858C107.063 13.7385 106.592 13.0128 105.892 12.5088C105.192 12.0048 104.319 11.7458 103.274 11.7318C102.583 11.7271 101.953 11.8345 101.384 12.0538C100.814 12.2731 100.359 12.6068 100.019 13.0548C99.678 13.5028 99.5077 14.0651 99.5077 14.7418C99.5077 15.2225 99.587 15.6215 99.7457 15.9388C99.909 16.2515 100.112 16.5035 100.355 16.6948C100.597 16.8861 100.847 17.0331 101.104 17.1358C101.365 17.2385 101.594 17.3178 101.79 17.3738L104.408 18.1438C104.8 18.2605 105.061 18.4075 105.192 18.5848C105.322 18.7575 105.388 18.9465 105.388 19.1518C105.388 19.4318 105.292 19.6675 105.101 19.8588C104.914 20.0501 104.674 20.1948 104.38 20.2928C104.086 20.3908 103.782 20.4398 103.47 20.4398C102.91 20.4398 102.41 20.2835 101.972 19.9708C101.533 19.6581 101.244 19.2125 101.104 18.6338L99.1157 18.9278C99.2183 19.6091 99.461 20.1971 99.8437 20.6918C100.231 21.1818 100.723 21.5598 101.321 21.8258C101.923 22.0871 102.597 22.2178 103.344 22.2178ZM108.914 22.0078H110.846V18.1718C110.846 17.7005 110.898 17.3225 111 17.0378C111.108 16.7531 111.243 16.5385 111.406 16.3938C111.57 16.2445 111.745 16.1441 111.931 16.0928C112.118 16.0415 112.293 16.0158 112.456 16.0158C112.862 16.0158 113.175 16.1068 113.394 16.2888C113.618 16.4708 113.779 16.6971 113.877 16.9678C113.975 17.2385 114.034 17.5091 114.052 17.7798C114.071 18.0458 114.08 18.2651 114.08 18.4378V22.0078H116.012V17.7658C116.012 17.6398 116.003 17.4391 115.984 17.1638C115.966 16.8885 115.912 16.5851 115.823 16.2538C115.735 15.9178 115.585 15.5958 115.375 15.2878C115.17 14.9798 114.881 14.7255 114.507 14.5248C114.134 14.3241 113.651 14.2238 113.058 14.2238C112.512 14.2238 112.036 14.3148 111.63 14.4968C111.224 14.6788 110.884 14.9215 110.608 15.2248V11.9278H108.914V22.0078ZM121.231 22.2178C121.987 22.2178 122.652 22.0498 123.226 21.7138C123.804 21.3731 124.255 20.9041 124.577 20.3068C124.903 19.7048 125.067 19.0118 125.067 18.2278C125.067 17.4485 124.906 16.7601 124.584 16.1628C124.262 15.5608 123.811 15.0895 123.233 14.7488C122.659 14.4081 121.991 14.2378 121.231 14.2378C120.484 14.2378 119.824 14.4058 119.25 14.7418C118.676 15.0778 118.225 15.5468 117.899 16.1488C117.572 16.7461 117.409 17.4391 117.409 18.2278C117.409 19.0071 117.567 19.6978 117.885 20.2998C118.207 20.8971 118.655 21.3661 119.229 21.7068C119.803 22.0475 120.47 22.2178 121.231 22.2178ZM121.231 20.4398C120.638 20.4398 120.188 20.2415 119.88 19.8448C119.576 19.4435 119.425 18.9045 119.425 18.2278C119.425 17.5698 119.569 17.0378 119.859 16.6318C120.153 16.2211 120.61 16.0158 121.231 16.0158C121.833 16.0158 122.285 16.2165 122.589 16.6178C122.897 17.0191 123.051 17.5558 123.051 18.2278C123.051 18.8765 122.899 19.4085 122.596 19.8238C122.297 20.2345 121.842 20.4398 121.231 20.4398ZM126.592 25.3678H128.51V21.7348C128.757 21.8888 129.03 22.0078 129.329 22.0918C129.632 22.1758 129.961 22.2178 130.316 22.2178C131.011 22.2178 131.62 22.0428 132.143 21.6928C132.666 21.3428 133.072 20.8668 133.361 20.2648C133.655 19.6628 133.802 18.9838 133.802 18.2278C133.802 17.4578 133.653 16.7741 133.354 16.1768C133.06 15.5748 132.645 15.1011 132.108 14.7558C131.571 14.4105 130.941 14.2378 130.218 14.2378C129.826 14.2378 129.467 14.2938 129.14 14.4058C128.818 14.5131 128.529 14.6671 128.272 14.8678V14.4478H126.592V25.3678ZM130.008 20.5238C129.373 20.5238 128.925 20.3138 128.664 19.8938C128.403 19.4691 128.272 18.9138 128.272 18.2278C128.272 17.5418 128.4 16.9888 128.657 16.5688C128.918 16.1441 129.345 15.9318 129.938 15.9318C130.363 15.9318 130.71 16.0368 130.981 16.2468C131.256 16.4521 131.459 16.7298 131.59 17.0798C131.721 17.4251 131.786 17.8078 131.786 18.2278C131.786 18.6525 131.723 19.0398 131.597 19.3898C131.471 19.7351 131.277 20.0105 131.016 20.2158C130.755 20.4211 130.419 20.5238 130.008 20.5238ZM135.328 25.3678H137.246V21.7348C137.494 21.8888 137.767 22.0078 138.065 22.0918C138.369 22.1758 138.698 22.2178 139.052 22.2178C139.748 22.2178 140.357 22.0428 140.879 21.6928C141.402 21.3428 141.808 20.8668 142.097 20.2648C142.391 19.6628 142.538 18.9838 142.538 18.2278C142.538 17.4578 142.389 16.7741 142.09 16.1768C141.796 15.5748 141.381 15.1011 140.844 14.7558C140.308 14.4105 139.678 14.2378 138.954 14.2378C138.562 14.2378 138.203 14.2938 137.876 14.4058C137.554 14.5131 137.265 14.6671 137.008 14.8678V14.4478H135.328V25.3678ZM138.744 20.5238C138.11 20.5238 137.662 20.3138 137.4 19.8938C137.139 19.4691 137.008 18.9138 137.008 18.2278C137.008 17.5418 137.137 16.9888 137.393 16.5688C137.655 16.1441 138.082 15.9318 138.674 15.9318C139.099 15.9318 139.447 16.0368 139.717 16.2468C139.993 16.4521 140.196 16.7298 140.326 17.0798C140.457 17.4251 140.522 17.8078 140.522 18.2278C140.522 18.6525 140.459 19.0398 140.333 19.3898C140.207 19.7351 140.014 20.0105 139.752 20.2158C139.491 20.4211 139.155 20.5238 138.744 20.5238ZM147.593 22.2178C148.321 22.2178 148.99 22.0265 149.602 21.6438C150.218 21.2611 150.668 20.7245 150.953 20.0338L149.049 19.4878C148.759 20.1225 148.237 20.4398 147.481 20.4398C146.963 20.4398 146.554 20.2951 146.256 20.0058C145.962 19.7165 145.78 19.3011 145.71 18.7598H151.016C151.095 17.8451 151.002 17.0495 150.736 16.3728C150.47 15.6961 150.059 15.1711 149.504 14.7978C148.948 14.4245 148.274 14.2378 147.481 14.2378C146.734 14.2378 146.074 14.4081 145.5 14.7488C144.926 15.0848 144.475 15.5585 144.149 16.1698C143.822 16.7811 143.659 17.4998 143.659 18.3258C143.659 19.0818 143.824 19.7538 144.156 20.3418C144.492 20.9251 144.954 21.3848 145.542 21.7208C146.134 22.0521 146.818 22.2178 147.593 22.2178ZM147.565 15.8898C148.022 15.8898 148.372 16.0041 148.615 16.2328C148.862 16.4615 149.021 16.8325 149.091 17.3458H145.759C145.959 16.3751 146.561 15.8898 147.565 15.8898ZM152.596 22.0078H154.514V18.1438C154.514 17.2665 154.86 16.6691 155.55 16.3518C155.774 16.2445 156.024 16.1815 156.299 16.1628C156.579 16.1395 156.824 16.1605 157.034 16.2258V14.4478C156.694 14.4058 156.353 14.4151 156.012 14.4758C155.672 14.5318 155.364 14.6438 155.088 14.8118C154.911 14.9145 154.755 15.0381 154.619 15.1828C154.489 15.3275 154.374 15.4885 154.276 15.6658V14.4478H152.596V22.0078Z" fill="white"/>
</svg>
